Coordinates
version=1
nRows=24
nColumns=24
inDegrees=yes

Units are S.I. units (second, meters, Newtons, ...)
Angles are in degrees.

endheader
time	pelvis_tilt	pelvis_list	pelvis_rotation	pelvis_tx	pelvis_ty	pelvis_tz	hip_flexion_r	hip_adduction_r	hip_rotation_r	knee_angle_r	ankle_angle_r	subtalar_angle_r	mtp_angle_r	hip_flexion_l	hip_adduction_l	hip_rotation_l	knee_angle_l	ankle_angle_l	subtalar_angle_l	mtp_angle_l	lumbar_extension	lumbar_bending	lumbar_rotation
      1.56000000	     92.94876720	     17.06612866	    -93.98985821	      0.35518854	      0.28533124	      1.01416960	      4.81611101	     -6.17895004	     -7.66648948	    -10.04917386	    -46.49892610	     -1.74545602	    -25.17324631	    -11.89509995	    -17.04948699	    -11.33197926	    -60.50885907	    -24.45079222	     -0.14557499	     73.45799169	      0.00000000	      0.00000000	      0.00000000
      1.57000000	     92.95206809	     17.06086549	    -93.99183306	      0.35519015	      0.28532526	      1.01414735	      4.83072021	     -6.17505255	     -7.68374188	    -10.01982611	    -46.52465768	     -1.74545602	    -25.17324631	    -11.89545673	    -17.04554737	    -11.33175150	    -60.51288196	    -24.44923663	     -0.14557499	     73.45799169	      0.00000000	      0.00000000	      0.00000000
      1.58000000	     92.95521650	     17.06134061	    -93.99168909	      0.35519127	      0.28532238	      1.01414093	      4.85273519	     -6.17106009	     -7.69710021	     -9.98864134	    -46.54565149	     -1.74545602	    -25.17324631	    -11.88790703	    -17.04384335	    -11.33098753	    -60.51906913	    -24.44819227	     -0.14557499	     73.45799169	      0.00000000	      0.00000000	      0.00000000
      1.59000000	     92.95615578	     17.07024733	    -93.99019457	      0.35519490	      0.28532167	      1.01414386	      4.88333379	     -6.16654825	     -7.71298934	     -9.95691410	    -46.56054350	     -1.74545602	    -25.17324631	    -11.87143239	    -17.04568683	    -11.33117587	    -60.52605460	    -24.44814764	     -0.14557499	     73.45799169	      0.00000000	      0.00000000	      0.00000000
      1.60000000	     92.95294665	     17.08869740	    -93.98944158	      0.35520537	      0.28532069	      1.01412494	      4.92425120	     -6.15979648	     -7.74089782	     -9.92637003	    -46.57142259	     -1.74545602	    -25.17324631	    -11.84731884	    -17.05138300	    -11.33418041	    -60.53196962	    -24.44957487	     -0.14557499	     73.45799169	      0.00000000	      0.00000000	      0.00000000
      1.61000000	     92.94456795	     17.11427854	    -93.99157927	      0.35521328	      0.28531518	      1.01407588	      4.97834403	     -6.14814101	     -7.79003767	     -9.89810798	    -46.58315672	     -1.74545602	    -25.17324631	    -11.81922603	    -17.05994694	    -11.34161217	    -60.53510144	    -24.45271356	     -0.14557499	     73.45799169	      0.00000000	      0.00000000	      0.00000000
      1.62000000	     92.93186766	     17.14130632	    -93.99752934	      0.35519542	      0.28530683	      1.01403991	      5.04738179	     -6.12907047	     -7.86513674	     -9.87263615	    -46.60156029	     -1.74545602	    -25.17324631	    -11.79195086	    -17.06936479	    -11.35420629	    -60.53461213	    -24.45735895	     -0.14557499	     73.45799169	      0.00000000	      0.00000000	      0.00000000
      1.63000000	     92.91749403	     17.16415783	    -94.00676871	      0.35513655	      0.28530964	      1.01405984	      5.12723037	     -6.10252769	     -7.96347169	     -9.85126031	    -46.63081424	     -1.74545602	    -25.17324631	    -11.76946183	    -17.07749349	    -11.37124724	    -60.53093571	    -24.46278337	     -0.14557499	     73.45799169	      0.00000000	      0.00000000	      0.00000000
      1.64000000	     92.90414713	     17.18047650	    -94.01771404	      0.35505412	      0.28532548	      1.01411026	      5.20530842	     -6.07378990	     -8.07539736	     -9.83688450	    -46.67059983	     -1.74545602	    -25.17324631	    -11.75378060	    -17.08306709	    -11.39019525	    -60.52563846	    -24.46790863	     -0.14557499	     73.45799169	      0.00000000	      0.00000000	      0.00000000
      1.65000000	     92.89377961	     17.19025751	    -94.02766289	      0.35498928	      0.28533475	      1.01413348	      5.26479677	     -6.05309164	     -8.18927796	     -9.83298937	    -46.71389229	     -1.74545602	    -25.17324631	    -11.74572662	    -17.08587964	    -11.40688290	    -60.52077596	    -24.47171471	     -0.14557499	     73.45799169	      0.00000000	      0.00000000	      0.00000000
      1.66000000	     92.88878421	     17.19235780	    -94.03280737	      0.35497081	      0.28533254	      1.01412242	      5.29258627	     -6.05105150	     -8.29894944	     -9.84280541	    -46.74630472	     -1.74545602	    -25.17324631	    -11.74665865	    -17.08588872	    -11.41649647	    -60.51794379	    -24.47369562	     -0.14557499	     73.45799169	      0.00000000	      0.00000000	      0.00000000
      1.67000000	     92.89190794	     17.18306527	    -94.02953301	      0.35500302	      0.28533315	      1.01411468	      5.28400845	     -6.07489051	     -8.40973238	     -9.87092784	    -46.74673929	     -1.74545602	    -25.17324631	    -11.75930204	    -17.08213694	    -11.41501821	    -60.51734630	    -24.47411014	     -0.14557499	     73.45799169	      0.00000000	      0.00000000	      0.00000000
      1.68000000	     92.90468252	     17.15710359	    -94.01662459	      0.35506663	      0.28534343	      1.01413788	      5.24250859	     -6.12746518	     -8.53964229	     -9.92627808	    -46.68844193	     -1.74545602	    -25.17324631	    -11.78680314	    -17.07248412	    -11.40051172	    -60.51732252	    -24.47388774	     -0.14557499	     73.45799169	      0.00000000	      0.00000000	      0.00000000
      1.69000000	     92.92713375	     17.11015582	    -93.99643557	      0.35511942	      0.28536308	      1.01418219	      5.17570270	     -6.20729049	     -8.71471985	    -10.02413885	    -46.54001340	     -1.74545602	    -25.17324631	    -11.83108913	    -17.05419834	    -11.37381865	    -60.51475905	    -24.47423778	     -0.14557499	     73.45799169	      0.00000000	      0.00000000	      0.00000000
      1.70000000	     92.95817797	     17.04216528	    -93.97379472	      0.35512460	      0.28538115	      1.01419907	      5.09017939	     -6.30999151	     -8.95985759	    -10.18528601	    -46.26645292	     -1.74545602	    -25.17324631	    -11.89208711	    -17.02496649	    -11.33843987	    -60.50642473	    -24.47613892	     -0.14557499	     73.45799169	      0.00000000	      0.00000000	      0.00000000
      1.71000000	     92.99612664	     16.95769231	    -93.95362325	      0.35506414	      0.28538825	      1.01416950	      4.98943693	     -6.43037811	     -9.28859430	    -10.43099067	    -45.83114389	     -1.74545602	    -25.17324631	    -11.96801483	    -16.98405088	    -11.29951320	    -60.49057244	    -24.47991334	     -0.14557499	     73.45799169	      0.00000000	      0.00000000	      0.00000000
      1.72000000	     93.03925789	     16.86407491	    -93.93940905	      0.35494254	      0.28541249	      1.01415521	      4.87379013	     -6.56393368	     -9.69563655	    -10.77694888	    -45.20052436	     -1.74545602	    -25.17324631	    -12.05574819	    -16.93323136	    -11.26216259	    -60.46778732	    -24.48503673	     -0.14557499	     73.45799169	      0.00000000	      0.00000000	      0.00000000
      1.73000000	     93.08422830	     16.77095994	    -93.93339172	      0.35482631	      0.28547715	      1.01419806	      4.73870026	     -6.70914225	    -10.15478172	    -11.22994753	    -44.35196533	     -1.74545602	    -25.17324631	    -12.15058988	    -16.87674820	    -11.22993716	    -60.44047410	    -24.49025250	     -0.14557499	     73.45799169	      0.00000000	      0.00000000	      0.00000000
      1.74000000	     93.12544056	     16.68846788	    -93.93688820	      0.35480085	      0.28555183	      1.01425580	      4.57510084	     -6.86699437	    -10.62346591	    -11.78696819	    -43.28334913	     -1.74545602	    -25.17324631	    -12.24603795	    -16.81965044	    -11.20412074	    -60.41137683	    -24.49396376	     -0.14557499	     73.45799169	      0.00000000	      0.00000000	      0.00000000
      1.75000000	     93.15900420	     16.62361590	    -93.94950325	      0.35485231	      0.28560596	      1.01428973	      4.37299732	     -7.03561247	    -11.05226526	    -12.43639005	    -42.02170265	     -1.74545602	    -25.17324631	    -12.33464537	    -16.76544315	    -11.18409360	    -60.38220862	    -24.49476133	     -0.14557499	     73.45799169	      0.00000000	      0.00000000	      0.00000000
      1.76000000	     93.18631547	     16.57886730	    -93.96847833	      0.35490384	      0.28565550	      1.01432068	      4.12452790	     -7.20744757	    -11.39554967	    -13.16126581	    -40.62726646	     -1.74545602	    -25.17324631	    -12.40999076	    -16.71501772	    -11.16822872	    -60.35318938	    -24.49187488	     -0.14557499	     73.45799169	      0.00000000	      0.00000000	      0.00000000
      1.77000000	     93.21219107	     16.55377321	    -93.98989143	      0.35494371	      0.28572384	      1.01438018	      3.82473318	     -7.37364663	    -11.61994057	    -13.94356894	    -39.18978087	     -1.74545602	    -25.17324631	    -12.46844757	    -16.66765681	    -11.15476561	    -60.32344942	    -24.48538998	     -0.14557499	     73.45799169	      0.00000000	      0.00000000	      0.00000000
      1.78000000	     93.23987193	     16.54758757	    -94.01111893	      0.35500472	      0.28580440	      1.01445959	      3.47118028	     -7.53051053	    -11.70823367	    -14.76833545	    -37.81650309	     -1.74545602	    -25.17324631	    -12.50954022	    -16.62291783	    -11.14243114	    -60.29174976	    -24.47621899	     -0.14557499	     73.45799169	      0.00000000	      0.00000000	      0.00000000
      1.79000000	     93.26824553	     16.55960950	    -94.03183249	      0.35508395	      0.28587697	      1.01453410	      3.06489980	     -7.68137798	    -11.65759754	    -15.62607813	    -36.61447785	     -1.74545602	    -25.17324631	    -12.53498589	    -16.58169871	    -11.13071596	    -60.25716597	    -24.46592367	     -0.14557499	     73.45799169	      0.00000000	      0.00000000	      0.00000000
